%TF.GenerationSoftware,KiCad,Pcbnew,(6.0.1)*%
%TF.CreationDate,2022-02-20T17:51:40+01:00*%
%TF.ProjectId,3x2-macropad,3378322d-6d61-4637-926f-7061642e6b69,rev?*%
%TF.SameCoordinates,Original*%
%TF.FileFunction,Legend,Top*%
%TF.FilePolarity,Positive*%
%FSLAX46Y46*%
G04 Gerber Fmt 4.6, Leading zero omitted, Abs format (unit mm)*
G04 Created by KiCad (PCBNEW (6.0.1)) date 2022-02-20 17:51:40*
%MOMM*%
%LPD*%
G01*
G04 APERTURE LIST*
%ADD10C,0.150000*%
%ADD11C,0.381000*%
%ADD12R,1.752600X1.752600*%
%ADD13C,1.752600*%
G04 APERTURE END LIST*
D10*
%TO.C,JP1*%
X69452380Y-35783333D02*
X70166666Y-35783333D01*
X70309523Y-35830952D01*
X70404761Y-35926190D01*
X70452380Y-36069047D01*
X70452380Y-36164285D01*
X70452380Y-35307142D02*
X69452380Y-35307142D01*
X69452380Y-34926190D01*
X69500000Y-34830952D01*
X69547619Y-34783333D01*
X69642857Y-34735714D01*
X69785714Y-34735714D01*
X69880952Y-34783333D01*
X69928571Y-34830952D01*
X69976190Y-34926190D01*
X69976190Y-35307142D01*
X70452380Y-33783333D02*
X70452380Y-34354761D01*
X70452380Y-34069047D02*
X69452380Y-34069047D01*
X69595238Y-34164285D01*
X69690476Y-34259523D01*
X69738095Y-34354761D01*
%TO.C,U1*%
X65462190Y-60984607D02*
X65576476Y-61022702D01*
X65614571Y-61060797D01*
X65652666Y-61136988D01*
X65652666Y-61251273D01*
X65614571Y-61327464D01*
X65576476Y-61365559D01*
X65500285Y-61403654D01*
X65195523Y-61403654D01*
X65195523Y-60603654D01*
X65462190Y-60603654D01*
X65538380Y-60641750D01*
X65576476Y-60679845D01*
X65614571Y-60756035D01*
X65614571Y-60832226D01*
X65576476Y-60908416D01*
X65538380Y-60946511D01*
X65462190Y-60984607D01*
X65195523Y-60984607D01*
X65957428Y-60679845D02*
X65995523Y-60641750D01*
X66071714Y-60603654D01*
X66262190Y-60603654D01*
X66338380Y-60641750D01*
X66376476Y-60679845D01*
X66414571Y-60756035D01*
X66414571Y-60832226D01*
X66376476Y-60946511D01*
X65919333Y-61403654D01*
X66414571Y-61403654D01*
X65519333Y-53364607D02*
X65252666Y-53364607D01*
X65252666Y-53783654D02*
X65252666Y-52983654D01*
X65633619Y-52983654D01*
X65862190Y-52983654D02*
X66395523Y-52983654D01*
X66052666Y-53783654D01*
X65519333Y-50824607D02*
X65252666Y-50824607D01*
X65252666Y-51243654D02*
X65252666Y-50443654D01*
X65633619Y-50443654D01*
X66281238Y-50443654D02*
X66128857Y-50443654D01*
X66052666Y-50481750D01*
X66014571Y-50519845D01*
X65938380Y-50634130D01*
X65900285Y-50786511D01*
X65900285Y-51091273D01*
X65938380Y-51167464D01*
X65976476Y-51205559D01*
X66052666Y-51243654D01*
X66205047Y-51243654D01*
X66281238Y-51205559D01*
X66319333Y-51167464D01*
X66357428Y-51091273D01*
X66357428Y-50900797D01*
X66319333Y-50824607D01*
X66281238Y-50786511D01*
X66205047Y-50748416D01*
X66052666Y-50748416D01*
X65976476Y-50786511D01*
X65938380Y-50824607D01*
X65900285Y-50900797D01*
X65519333Y-48284607D02*
X65252666Y-48284607D01*
X65252666Y-48703654D02*
X65252666Y-47903654D01*
X65633619Y-47903654D01*
X66319333Y-47903654D02*
X65938380Y-47903654D01*
X65900285Y-48284607D01*
X65938380Y-48246511D01*
X66014571Y-48208416D01*
X66205047Y-48208416D01*
X66281238Y-48246511D01*
X66319333Y-48284607D01*
X66357428Y-48360797D01*
X66357428Y-48551273D01*
X66319333Y-48627464D01*
X66281238Y-48665559D01*
X66205047Y-48703654D01*
X66014571Y-48703654D01*
X65938380Y-48665559D01*
X65900285Y-48627464D01*
X65233619Y-36003654D02*
X64966952Y-35622702D01*
X64776476Y-36003654D02*
X64776476Y-35203654D01*
X65081238Y-35203654D01*
X65157428Y-35241750D01*
X65195523Y-35279845D01*
X65233619Y-35356035D01*
X65233619Y-35470321D01*
X65195523Y-35546511D01*
X65157428Y-35584607D01*
X65081238Y-35622702D01*
X64776476Y-35622702D01*
X65538380Y-35775083D02*
X65919333Y-35775083D01*
X65462190Y-36003654D02*
X65728857Y-35203654D01*
X65995523Y-36003654D01*
X66186000Y-35203654D02*
X66376476Y-36003654D01*
X66528857Y-35432226D01*
X66681238Y-36003654D01*
X66871714Y-35203654D01*
X65176476Y-37781750D02*
X65100285Y-37743654D01*
X64986000Y-37743654D01*
X64871714Y-37781750D01*
X64795523Y-37857940D01*
X64757428Y-37934130D01*
X64719333Y-38086511D01*
X64719333Y-38200797D01*
X64757428Y-38353178D01*
X64795523Y-38429369D01*
X64871714Y-38505559D01*
X64986000Y-38543654D01*
X65062190Y-38543654D01*
X65176476Y-38505559D01*
X65214571Y-38467464D01*
X65214571Y-38200797D01*
X65062190Y-38200797D01*
X65557428Y-38543654D02*
X65557428Y-37743654D01*
X66014571Y-38543654D01*
X66014571Y-37743654D01*
X66395523Y-38543654D02*
X66395523Y-37743654D01*
X66586000Y-37743654D01*
X66700285Y-37781750D01*
X66776476Y-37857940D01*
X66814571Y-37934130D01*
X66852666Y-38086511D01*
X66852666Y-38200797D01*
X66814571Y-38353178D01*
X66776476Y-38429369D01*
X66700285Y-38505559D01*
X66586000Y-38543654D01*
X66395523Y-38543654D01*
X65524786Y-41015559D02*
X65639072Y-41053654D01*
X65829548Y-41053654D01*
X65905739Y-41015559D01*
X65943834Y-40977464D01*
X65981929Y-40901273D01*
X65981929Y-40825083D01*
X65943834Y-40748892D01*
X65905739Y-40710797D01*
X65829548Y-40672702D01*
X65677167Y-40634607D01*
X65600977Y-40596511D01*
X65562881Y-40558416D01*
X65524786Y-40482226D01*
X65524786Y-40406035D01*
X65562881Y-40329845D01*
X65600977Y-40291750D01*
X65677167Y-40253654D01*
X65867643Y-40253654D01*
X65981929Y-40291750D01*
X66210500Y-40253654D02*
X66667643Y-40253654D01*
X66439072Y-41053654D02*
X66439072Y-40253654D01*
X64719333Y-42823654D02*
X64986000Y-43623654D01*
X65252666Y-42823654D01*
X65976476Y-43547464D02*
X65938380Y-43585559D01*
X65824095Y-43623654D01*
X65747904Y-43623654D01*
X65633619Y-43585559D01*
X65557428Y-43509369D01*
X65519333Y-43433178D01*
X65481238Y-43280797D01*
X65481238Y-43166511D01*
X65519333Y-43014130D01*
X65557428Y-42937940D01*
X65633619Y-42861750D01*
X65747904Y-42823654D01*
X65824095Y-42823654D01*
X65938380Y-42861750D01*
X65976476Y-42899845D01*
X66776476Y-43547464D02*
X66738380Y-43585559D01*
X66624095Y-43623654D01*
X66547904Y-43623654D01*
X66433619Y-43585559D01*
X66357428Y-43509369D01*
X66319333Y-43433178D01*
X66281238Y-43280797D01*
X66281238Y-43166511D01*
X66319333Y-43014130D01*
X66357428Y-42937940D01*
X66433619Y-42861750D01*
X66547904Y-42823654D01*
X66624095Y-42823654D01*
X66738380Y-42861750D01*
X66776476Y-42899845D01*
X65519333Y-45744607D02*
X65252666Y-45744607D01*
X65252666Y-46163654D02*
X65252666Y-45363654D01*
X65633619Y-45363654D01*
X66281238Y-45630321D02*
X66281238Y-46163654D01*
X66090761Y-45325559D02*
X65900285Y-45896988D01*
X66395523Y-45896988D01*
X65462190Y-55904607D02*
X65576476Y-55942702D01*
X65614571Y-55980797D01*
X65652666Y-56056988D01*
X65652666Y-56171273D01*
X65614571Y-56247464D01*
X65576476Y-56285559D01*
X65500285Y-56323654D01*
X65195523Y-56323654D01*
X65195523Y-55523654D01*
X65462190Y-55523654D01*
X65538380Y-55561750D01*
X65576476Y-55599845D01*
X65614571Y-55676035D01*
X65614571Y-55752226D01*
X65576476Y-55828416D01*
X65538380Y-55866511D01*
X65462190Y-55904607D01*
X65195523Y-55904607D01*
X66414571Y-56323654D02*
X65957428Y-56323654D01*
X66186000Y-56323654D02*
X66186000Y-55523654D01*
X66109809Y-55637940D01*
X66033619Y-55714130D01*
X65957428Y-55752226D01*
X65462190Y-58444607D02*
X65576476Y-58482702D01*
X65614571Y-58520797D01*
X65652666Y-58596988D01*
X65652666Y-58711273D01*
X65614571Y-58787464D01*
X65576476Y-58825559D01*
X65500285Y-58863654D01*
X65195523Y-58863654D01*
X65195523Y-58063654D01*
X65462190Y-58063654D01*
X65538380Y-58101750D01*
X65576476Y-58139845D01*
X65614571Y-58216035D01*
X65614571Y-58292226D01*
X65576476Y-58368416D01*
X65538380Y-58406511D01*
X65462190Y-58444607D01*
X65195523Y-58444607D01*
X65919333Y-58063654D02*
X66414571Y-58063654D01*
X66147904Y-58368416D01*
X66262190Y-58368416D01*
X66338380Y-58406511D01*
X66376476Y-58444607D01*
X66414571Y-58520797D01*
X66414571Y-58711273D01*
X66376476Y-58787464D01*
X66338380Y-58825559D01*
X66262190Y-58863654D01*
X66033619Y-58863654D01*
X65957428Y-58825559D01*
X65919333Y-58787464D01*
X65462190Y-63524607D02*
X65576476Y-63562702D01*
X65614571Y-63600797D01*
X65652666Y-63676988D01*
X65652666Y-63791273D01*
X65614571Y-63867464D01*
X65576476Y-63905559D01*
X65500285Y-63943654D01*
X65195523Y-63943654D01*
X65195523Y-63143654D01*
X65462190Y-63143654D01*
X65538380Y-63181750D01*
X65576476Y-63219845D01*
X65614571Y-63296035D01*
X65614571Y-63372226D01*
X65576476Y-63448416D01*
X65538380Y-63486511D01*
X65462190Y-63524607D01*
X65195523Y-63524607D01*
X66338380Y-63143654D02*
X66186000Y-63143654D01*
X66109809Y-63181750D01*
X66071714Y-63219845D01*
X65995523Y-63334130D01*
X65957428Y-63486511D01*
X65957428Y-63791273D01*
X65995523Y-63867464D01*
X66033619Y-63905559D01*
X66109809Y-63943654D01*
X66262190Y-63943654D01*
X66338380Y-63905559D01*
X66376476Y-63867464D01*
X66414571Y-63791273D01*
X66414571Y-63600797D01*
X66376476Y-63524607D01*
X66338380Y-63486511D01*
X66262190Y-63448416D01*
X66109809Y-63448416D01*
X66033619Y-63486511D01*
X65995523Y-63524607D01*
X65957428Y-63600797D01*
X54540190Y-63524607D02*
X54654476Y-63562702D01*
X54692571Y-63600797D01*
X54730666Y-63676988D01*
X54730666Y-63791273D01*
X54692571Y-63867464D01*
X54654476Y-63905559D01*
X54578285Y-63943654D01*
X54273523Y-63943654D01*
X54273523Y-63143654D01*
X54540190Y-63143654D01*
X54616380Y-63181750D01*
X54654476Y-63219845D01*
X54692571Y-63296035D01*
X54692571Y-63372226D01*
X54654476Y-63448416D01*
X54616380Y-63486511D01*
X54540190Y-63524607D01*
X54273523Y-63524607D01*
X55454476Y-63143654D02*
X55073523Y-63143654D01*
X55035428Y-63524607D01*
X55073523Y-63486511D01*
X55149714Y-63448416D01*
X55340190Y-63448416D01*
X55416380Y-63486511D01*
X55454476Y-63524607D01*
X55492571Y-63600797D01*
X55492571Y-63791273D01*
X55454476Y-63867464D01*
X55416380Y-63905559D01*
X55340190Y-63943654D01*
X55149714Y-63943654D01*
X55073523Y-63905559D01*
X55035428Y-63867464D01*
X54540190Y-60984607D02*
X54654476Y-61022702D01*
X54692571Y-61060797D01*
X54730666Y-61136988D01*
X54730666Y-61251273D01*
X54692571Y-61327464D01*
X54654476Y-61365559D01*
X54578285Y-61403654D01*
X54273523Y-61403654D01*
X54273523Y-60603654D01*
X54540190Y-60603654D01*
X54616380Y-60641750D01*
X54654476Y-60679845D01*
X54692571Y-60756035D01*
X54692571Y-60832226D01*
X54654476Y-60908416D01*
X54616380Y-60946511D01*
X54540190Y-60984607D01*
X54273523Y-60984607D01*
X55416380Y-60870321D02*
X55416380Y-61403654D01*
X55225904Y-60565559D02*
X55035428Y-61136988D01*
X55530666Y-61136988D01*
X54311619Y-58444607D02*
X54578285Y-58444607D01*
X54692571Y-58863654D02*
X54311619Y-58863654D01*
X54311619Y-58063654D01*
X54692571Y-58063654D01*
X55378285Y-58063654D02*
X55225904Y-58063654D01*
X55149714Y-58101750D01*
X55111619Y-58139845D01*
X55035428Y-58254130D01*
X54997333Y-58406511D01*
X54997333Y-58711273D01*
X55035428Y-58787464D01*
X55073523Y-58825559D01*
X55149714Y-58863654D01*
X55302095Y-58863654D01*
X55378285Y-58825559D01*
X55416380Y-58787464D01*
X55454476Y-58711273D01*
X55454476Y-58520797D01*
X55416380Y-58444607D01*
X55378285Y-58406511D01*
X55302095Y-58368416D01*
X55149714Y-58368416D01*
X55073523Y-58406511D01*
X55035428Y-58444607D01*
X54997333Y-58520797D01*
X54273523Y-56323654D02*
X54273523Y-55523654D01*
X54464000Y-55523654D01*
X54578285Y-55561750D01*
X54654476Y-55637940D01*
X54692571Y-55714130D01*
X54730666Y-55866511D01*
X54730666Y-55980797D01*
X54692571Y-56133178D01*
X54654476Y-56209369D01*
X54578285Y-56285559D01*
X54464000Y-56323654D01*
X54273523Y-56323654D01*
X54997333Y-55523654D02*
X55530666Y-55523654D01*
X55187809Y-56323654D01*
X54730666Y-53707464D02*
X54692571Y-53745559D01*
X54578285Y-53783654D01*
X54502095Y-53783654D01*
X54387809Y-53745559D01*
X54311619Y-53669369D01*
X54273523Y-53593178D01*
X54235428Y-53440797D01*
X54235428Y-53326511D01*
X54273523Y-53174130D01*
X54311619Y-53097940D01*
X54387809Y-53021750D01*
X54502095Y-52983654D01*
X54578285Y-52983654D01*
X54692571Y-53021750D01*
X54730666Y-53059845D01*
X55416380Y-52983654D02*
X55264000Y-52983654D01*
X55187809Y-53021750D01*
X55149714Y-53059845D01*
X55073523Y-53174130D01*
X55035428Y-53326511D01*
X55035428Y-53631273D01*
X55073523Y-53707464D01*
X55111619Y-53745559D01*
X55187809Y-53783654D01*
X55340190Y-53783654D01*
X55416380Y-53745559D01*
X55454476Y-53707464D01*
X55492571Y-53631273D01*
X55492571Y-53440797D01*
X55454476Y-53364607D01*
X55416380Y-53326511D01*
X55340190Y-53288416D01*
X55187809Y-53288416D01*
X55111619Y-53326511D01*
X55073523Y-53364607D01*
X55035428Y-53440797D01*
X54273523Y-51243654D02*
X54273523Y-50443654D01*
X54464000Y-50443654D01*
X54578285Y-50481750D01*
X54654476Y-50557940D01*
X54692571Y-50634130D01*
X54730666Y-50786511D01*
X54730666Y-50900797D01*
X54692571Y-51053178D01*
X54654476Y-51129369D01*
X54578285Y-51205559D01*
X54464000Y-51243654D01*
X54273523Y-51243654D01*
X55416380Y-50710321D02*
X55416380Y-51243654D01*
X55225904Y-50405559D02*
X55035428Y-50976988D01*
X55530666Y-50976988D01*
X54254476Y-40321750D02*
X54178285Y-40283654D01*
X54064000Y-40283654D01*
X53949714Y-40321750D01*
X53873523Y-40397940D01*
X53835428Y-40474130D01*
X53797333Y-40626511D01*
X53797333Y-40740797D01*
X53835428Y-40893178D01*
X53873523Y-40969369D01*
X53949714Y-41045559D01*
X54064000Y-41083654D01*
X54140190Y-41083654D01*
X54254476Y-41045559D01*
X54292571Y-41007464D01*
X54292571Y-40740797D01*
X54140190Y-40740797D01*
X54635428Y-41083654D02*
X54635428Y-40283654D01*
X55092571Y-41083654D01*
X55092571Y-40283654D01*
X55473523Y-41083654D02*
X55473523Y-40283654D01*
X55664000Y-40283654D01*
X55778285Y-40321750D01*
X55854476Y-40397940D01*
X55892571Y-40474130D01*
X55930666Y-40626511D01*
X55930666Y-40740797D01*
X55892571Y-40893178D01*
X55854476Y-40969369D01*
X55778285Y-41045559D01*
X55664000Y-41083654D01*
X55473523Y-41083654D01*
X54254476Y-42861750D02*
X54178285Y-42823654D01*
X54064000Y-42823654D01*
X53949714Y-42861750D01*
X53873523Y-42937940D01*
X53835428Y-43014130D01*
X53797333Y-43166511D01*
X53797333Y-43280797D01*
X53835428Y-43433178D01*
X53873523Y-43509369D01*
X53949714Y-43585559D01*
X54064000Y-43623654D01*
X54140190Y-43623654D01*
X54254476Y-43585559D01*
X54292571Y-43547464D01*
X54292571Y-43280797D01*
X54140190Y-43280797D01*
X54635428Y-43623654D02*
X54635428Y-42823654D01*
X55092571Y-43623654D01*
X55092571Y-42823654D01*
X55473523Y-43623654D02*
X55473523Y-42823654D01*
X55664000Y-42823654D01*
X55778285Y-42861750D01*
X55854476Y-42937940D01*
X55892571Y-43014130D01*
X55930666Y-43166511D01*
X55930666Y-43280797D01*
X55892571Y-43433178D01*
X55854476Y-43509369D01*
X55778285Y-43585559D01*
X55664000Y-43623654D01*
X55473523Y-43623654D01*
X54273523Y-46163654D02*
X54273523Y-45363654D01*
X54464000Y-45363654D01*
X54578285Y-45401750D01*
X54654476Y-45477940D01*
X54692571Y-45554130D01*
X54730666Y-45706511D01*
X54730666Y-45820797D01*
X54692571Y-45973178D01*
X54654476Y-46049369D01*
X54578285Y-46125559D01*
X54464000Y-46163654D01*
X54273523Y-46163654D01*
X55492571Y-46163654D02*
X55035428Y-46163654D01*
X55264000Y-46163654D02*
X55264000Y-45363654D01*
X55187809Y-45477940D01*
X55111619Y-45554130D01*
X55035428Y-45592226D01*
X54273523Y-48703654D02*
X54273523Y-47903654D01*
X54464000Y-47903654D01*
X54578285Y-47941750D01*
X54654476Y-48017940D01*
X54692571Y-48094130D01*
X54730666Y-48246511D01*
X54730666Y-48360797D01*
X54692571Y-48513178D01*
X54654476Y-48589369D01*
X54578285Y-48665559D01*
X54464000Y-48703654D01*
X54273523Y-48703654D01*
X55225904Y-47903654D02*
X55302095Y-47903654D01*
X55378285Y-47941750D01*
X55416380Y-47979845D01*
X55454476Y-48056035D01*
X55492571Y-48208416D01*
X55492571Y-48398892D01*
X55454476Y-48551273D01*
X55416380Y-48627464D01*
X55378285Y-48665559D01*
X55302095Y-48703654D01*
X55225904Y-48703654D01*
X55149714Y-48665559D01*
X55111619Y-48627464D01*
X55073523Y-48551273D01*
X55035428Y-48398892D01*
X55035428Y-48208416D01*
X55073523Y-48056035D01*
X55111619Y-47979845D01*
X55149714Y-47941750D01*
X55225904Y-47903654D01*
X54273523Y-38543654D02*
X54273523Y-37743654D01*
X54464000Y-37743654D01*
X54578285Y-37781750D01*
X54654476Y-37857940D01*
X54692571Y-37934130D01*
X54730666Y-38086511D01*
X54730666Y-38200797D01*
X54692571Y-38353178D01*
X54654476Y-38429369D01*
X54578285Y-38505559D01*
X54464000Y-38543654D01*
X54273523Y-38543654D01*
X55035428Y-37819845D02*
X55073523Y-37781750D01*
X55149714Y-37743654D01*
X55340190Y-37743654D01*
X55416380Y-37781750D01*
X55454476Y-37819845D01*
X55492571Y-37896035D01*
X55492571Y-37972226D01*
X55454476Y-38086511D01*
X54997333Y-38543654D01*
X55492571Y-38543654D01*
X54562651Y-35203654D02*
X55019794Y-35203654D01*
X54791223Y-36003654D02*
X54791223Y-35203654D01*
X55210270Y-35203654D02*
X55743604Y-36003654D01*
X55743604Y-35203654D02*
X55210270Y-36003654D01*
X56200747Y-35203654D02*
X56276937Y-35203654D01*
X56353128Y-35241750D01*
X56391223Y-35279845D01*
X56429318Y-35356035D01*
X56467413Y-35508416D01*
X56467413Y-35698892D01*
X56429318Y-35851273D01*
X56391223Y-35927464D01*
X56353128Y-35965559D01*
X56276937Y-36003654D01*
X56200747Y-36003654D01*
X56124556Y-35965559D01*
X56086461Y-35927464D01*
X56048366Y-35851273D01*
X56010270Y-35698892D01*
X56010270Y-35508416D01*
X56048366Y-35356035D01*
X56086461Y-35279845D01*
X56124556Y-35241750D01*
X56200747Y-35203654D01*
X57381699Y-35165559D02*
X56695985Y-36194130D01*
X57648366Y-36003654D02*
X57648366Y-35203654D01*
X57838842Y-35203654D01*
X57953128Y-35241750D01*
X58029318Y-35317940D01*
X58067413Y-35394130D01*
X58105508Y-35546511D01*
X58105508Y-35660797D01*
X58067413Y-35813178D01*
X58029318Y-35889369D01*
X57953128Y-35965559D01*
X57838842Y-36003654D01*
X57648366Y-36003654D01*
X58372175Y-35203654D02*
X58867413Y-35203654D01*
X58600747Y-35508416D01*
X58715032Y-35508416D01*
X58791223Y-35546511D01*
X58829318Y-35584607D01*
X58867413Y-35660797D01*
X58867413Y-35851273D01*
X58829318Y-35927464D01*
X58791223Y-35965559D01*
X58715032Y-36003654D01*
X58486461Y-36003654D01*
X58410270Y-35965559D01*
X58372175Y-35927464D01*
%TO.C,JP1*%
X71600000Y-37280000D02*
X71100000Y-36780000D01*
X72400000Y-32680000D02*
X72900000Y-33180000D01*
X71100000Y-33180000D02*
X71600000Y-32680000D01*
X71100000Y-36780000D02*
X71100000Y-33180000D01*
X72900000Y-36780000D02*
X72400000Y-37280000D01*
X72400000Y-37280000D02*
X71600000Y-37280000D01*
X71600000Y-32680000D02*
X72400000Y-32680000D01*
X72900000Y-33180000D02*
X72900000Y-36780000D01*
D11*
%TO.C,U1*%
X51435000Y-34371750D02*
X51435000Y-64851750D01*
X51435000Y-64851750D02*
X69215000Y-64851750D01*
X69215000Y-64851750D02*
X69215000Y-34371750D01*
X53975000Y-34371750D02*
X53975000Y-36911750D01*
X53975000Y-36911750D02*
X51435000Y-36911750D01*
D10*
X65256568Y-40251110D02*
X65256568Y-40551110D01*
X65256568Y-40551110D02*
X65156568Y-40551110D01*
X65156568Y-40551110D02*
X65156568Y-40251110D01*
X65156568Y-40251110D02*
X65256568Y-40251110D01*
G36*
X65256568Y-40551110D02*
G01*
X65156568Y-40551110D01*
X65156568Y-40251110D01*
X65256568Y-40251110D01*
X65256568Y-40551110D01*
G37*
X65256568Y-40551110D02*
X65156568Y-40551110D01*
X65156568Y-40251110D01*
X65256568Y-40251110D01*
X65256568Y-40551110D01*
X65056568Y-40651110D02*
X65056568Y-40751110D01*
X65056568Y-40751110D02*
X64956568Y-40751110D01*
X64956568Y-40751110D02*
X64956568Y-40651110D01*
X64956568Y-40651110D02*
X65056568Y-40651110D01*
G36*
X65056568Y-40751110D02*
G01*
X64956568Y-40751110D01*
X64956568Y-40651110D01*
X65056568Y-40651110D01*
X65056568Y-40751110D01*
G37*
X65056568Y-40751110D02*
X64956568Y-40751110D01*
X64956568Y-40651110D01*
X65056568Y-40651110D01*
X65056568Y-40751110D01*
X65256568Y-40251110D02*
X65256568Y-40351110D01*
X65256568Y-40351110D02*
X64756568Y-40351110D01*
X64756568Y-40351110D02*
X64756568Y-40251110D01*
X64756568Y-40251110D02*
X65256568Y-40251110D01*
G36*
X65256568Y-40351110D02*
G01*
X64756568Y-40351110D01*
X64756568Y-40251110D01*
X65256568Y-40251110D01*
X65256568Y-40351110D01*
G37*
X65256568Y-40351110D02*
X64756568Y-40351110D01*
X64756568Y-40251110D01*
X65256568Y-40251110D01*
X65256568Y-40351110D01*
X64856568Y-40251110D02*
X64856568Y-41051110D01*
X64856568Y-41051110D02*
X64756568Y-41051110D01*
X64756568Y-41051110D02*
X64756568Y-40251110D01*
X64756568Y-40251110D02*
X64856568Y-40251110D01*
G36*
X64856568Y-41051110D02*
G01*
X64756568Y-41051110D01*
X64756568Y-40251110D01*
X64856568Y-40251110D01*
X64856568Y-41051110D01*
G37*
X64856568Y-41051110D02*
X64756568Y-41051110D01*
X64756568Y-40251110D01*
X64856568Y-40251110D01*
X64856568Y-41051110D01*
X65256568Y-40851110D02*
X65256568Y-41051110D01*
X65256568Y-41051110D02*
X65156568Y-41051110D01*
X65156568Y-41051110D02*
X65156568Y-40851110D01*
X65156568Y-40851110D02*
X65256568Y-40851110D01*
G36*
X65256568Y-41051110D02*
G01*
X65156568Y-41051110D01*
X65156568Y-40851110D01*
X65256568Y-40851110D01*
X65256568Y-41051110D01*
G37*
X65256568Y-41051110D02*
X65156568Y-41051110D01*
X65156568Y-40851110D01*
X65256568Y-40851110D01*
X65256568Y-41051110D01*
D11*
X69215000Y-34371750D02*
X69215000Y-31831750D01*
X69215000Y-31831750D02*
X51435000Y-31831750D01*
X51435000Y-31831750D02*
X51435000Y-34371750D01*
X53975000Y-34371750D02*
X51435000Y-34371750D01*
%TD*%
D12*
%TO.C,U1*%
X52476400Y-35641750D03*
D13*
X52933600Y-38181750D03*
X52476400Y-40721750D03*
X52933600Y-43261750D03*
X52476400Y-45801750D03*
X52933600Y-48341750D03*
X52476400Y-50881750D03*
X52933600Y-53421750D03*
X52476400Y-55961750D03*
X52933600Y-58501750D03*
X52476400Y-61041750D03*
X67716400Y-63581750D03*
X68173600Y-61041750D03*
X67716400Y-58501750D03*
X68173600Y-55961750D03*
X67716400Y-53421750D03*
X68173600Y-50881750D03*
X67716400Y-48341750D03*
X68173600Y-45801750D03*
X67716400Y-43261750D03*
X68173600Y-40721750D03*
X67716400Y-38181750D03*
X52933600Y-63581750D03*
X68173600Y-35641750D03*
%TD*%
M02*
