M48
; DRILL file {KiCad (6.0.1)} date Sun Feb 20 17:51:19 2022
; FORMAT={-:-/ absolute / inch / decimal}
; #@! TF.CreationDate,2022-02-20T17:51:19+01:00
; #@! TF.GenerationSoftware,Kicad,Pcbnew,(6.0.1)
; #@! TF.FileFunction,Plated,1,2,PTH
FMAT,2
INCH
; #@! TA.AperFunction,Plated,PTH,ComponentDrill
T1C0.0315
; #@! TA.AperFunction,Plated,PTH,ComponentDrill
T2C0.0430
; #@! TA.AperFunction,Plated,PTH,ComponentDrill
T3C0.0472
; #@! TA.AperFunction,Plated,PTH,ComponentDrill
T4C0.0579
%
G90
G05
T1
X2.8346Y-1.3272
X2.8346Y-1.4272
T2
X2.066Y-1.4032
X2.066Y-1.6032
X2.066Y-1.8032
X2.066Y-2.0032
X2.066Y-2.2032
X2.066Y-2.4032
X2.084Y-1.5032
X2.084Y-1.7032
X2.084Y-1.9032
X2.084Y-2.1032
X2.084Y-2.3032
X2.084Y-2.5032
X2.666Y-1.5032
X2.666Y-1.7032
X2.666Y-1.9032
X2.666Y-2.1032
X2.666Y-2.3032
X2.666Y-2.5032
X2.684Y-1.4032
X2.684Y-1.6032
X2.684Y-1.8032
X2.684Y-2.0032
X2.684Y-2.2032
X2.684Y-2.4032
T3
X1.625Y-1.3927
X1.625Y-2.1427
X1.8219Y-1.4754
X1.8219Y-2.2254
X2.375Y-1.3927
X2.375Y-2.1427
X2.5719Y-1.4754
X2.5719Y-2.2254
X3.125Y-1.3927
X3.125Y-2.1427
X3.3219Y-1.4754
X3.3219Y-2.2254
T4
X1.475Y-1.525
X1.475Y-2.275
X1.5266Y-1.4675
X1.5266Y-2.2175
X1.7234Y-1.4478
X1.7234Y-2.1978
X1.725Y-1.425
X1.725Y-2.175
X2.225Y-1.525
X2.225Y-2.275
X2.2766Y-1.4675
X2.2766Y-2.2175
X2.4734Y-1.4478
X2.4734Y-2.1978
X2.475Y-1.425
X2.475Y-2.175
X2.975Y-1.525
X2.975Y-2.275
X3.0266Y-1.4675
X3.0266Y-2.2175
X3.2234Y-1.4478
X3.2234Y-2.1978
X3.225Y-1.425
X3.225Y-2.175
T0
M30
