%TF.GenerationSoftware,KiCad,Pcbnew,(6.0.1)*%
%TF.CreationDate,2022-02-20T17:51:40+01:00*%
%TF.ProjectId,3x2-macropad,3378322d-6d61-4637-926f-7061642e6b69,rev?*%
%TF.SameCoordinates,Original*%
%TF.FileFunction,Copper,L1,Top*%
%TF.FilePolarity,Positive*%
%FSLAX46Y46*%
G04 Gerber Fmt 4.6, Leading zero omitted, Abs format (unit mm)*
G04 Created by KiCad (PCBNEW (6.0.1)) date 2022-02-20 17:51:40*
%MOMM*%
%LPD*%
G01*
G04 APERTURE LIST*
G04 Aperture macros list*
%AMHorizOval*
0 Thick line with rounded ends*
0 $1 width*
0 $2 $3 position (X,Y) of the first rounded end (center of the circle)*
0 $4 $5 position (X,Y) of the second rounded end (center of the circle)*
0 Add line between two ends*
20,1,$1,$2,$3,$4,$5,0*
0 Add two circle primitives to create the rounded ends*
1,1,$1,$2,$3*
1,1,$1,$4,$5*%
G04 Aperture macros list end*
%TA.AperFunction,ComponentPad*%
%ADD10C,1.400000*%
%TD*%
%TA.AperFunction,ComponentPad*%
%ADD11R,1.752600X1.752600*%
%TD*%
%TA.AperFunction,ComponentPad*%
%ADD12C,1.752600*%
%TD*%
%TA.AperFunction,ComponentPad*%
%ADD13HorizOval,2.250000X0.019771X0.290016X-0.019771X-0.290016X0*%
%TD*%
%TA.AperFunction,ComponentPad*%
%ADD14C,2.250000*%
%TD*%
%TA.AperFunction,ComponentPad*%
%ADD15HorizOval,2.250000X0.654995X0.730004X-0.654995X-0.730004X0*%
%TD*%
%TA.AperFunction,ComponentPad*%
%ADD16C,2.000000*%
%TD*%
%TA.AperFunction,Conductor*%
%ADD17C,0.250000*%
%TD*%
G04 APERTURE END LIST*
D10*
%TO.P,JP1,1,A*%
%TO.N,Net-(JP1-Pad1)*%
X72000000Y-36250000D03*
%TO.P,JP1,2,B*%
%TO.N,GND*%
X72000000Y-33710000D03*
%TD*%
D11*
%TO.P,U1,1,TX0/PD3*%
%TO.N,unconnected-(U1-Pad1)*%
X52476400Y-35641750D03*
D12*
%TO.P,U1,2,RX1/PD2*%
%TO.N,unconnected-(U1-Pad2)*%
X52933600Y-38181750D03*
%TO.P,U1,3,GND*%
%TO.N,GND*%
X52476400Y-40721750D03*
%TO.P,U1,4,GND*%
X52933600Y-43261750D03*
%TO.P,U1,5,2/PD1*%
%TO.N,1x2*%
X52476400Y-45801750D03*
%TO.P,U1,6,3/PD0*%
%TO.N,1x1*%
X52933600Y-48341750D03*
%TO.P,U1,7,4/PD4*%
%TO.N,2x1*%
X52476400Y-50881750D03*
%TO.P,U1,8,5/PC6*%
%TO.N,unconnected-(U1-Pad8)*%
X52933600Y-53421750D03*
%TO.P,U1,9,6/PD7*%
%TO.N,unconnected-(U1-Pad9)*%
X52476400Y-55961750D03*
%TO.P,U1,10,7/PE6*%
%TO.N,unconnected-(U1-Pad10)*%
X52933600Y-58501750D03*
%TO.P,U1,11,8/PB4*%
%TO.N,unconnected-(U1-Pad11)*%
X52476400Y-61041750D03*
%TO.P,U1,13,10/PB6*%
%TO.N,unconnected-(U1-Pad13)*%
X67716400Y-63581750D03*
%TO.P,U1,14,16/PB2*%
%TO.N,unconnected-(U1-Pad14)*%
X68173600Y-61041750D03*
%TO.P,U1,15,14/PB3*%
%TO.N,unconnected-(U1-Pad15)*%
X67716400Y-58501750D03*
%TO.P,U1,16,15/PB1*%
%TO.N,unconnected-(U1-Pad16)*%
X68173600Y-55961750D03*
%TO.P,U1,17,A0/PF7*%
%TO.N,unconnected-(U1-Pad17)*%
X67716400Y-53421750D03*
%TO.P,U1,18,A1/PF6*%
%TO.N,2x2*%
X68173600Y-50881750D03*
%TO.P,U1,19,A2/PF5*%
%TO.N,2x3*%
X67716400Y-48341750D03*
%TO.P,U1,20,A3/PF4*%
%TO.N,1x3*%
X68173600Y-45801750D03*
%TO.P,U1,21,VCC*%
%TO.N,unconnected-(U1-Pad21)*%
X67716400Y-43261750D03*
%TO.P,U1,22,RST*%
%TO.N,Net-(JP1-Pad1)*%
X68173600Y-40721750D03*
%TO.P,U1,23,GND*%
%TO.N,GND*%
X67716400Y-38181750D03*
%TO.P,U1,12,9/PB5*%
%TO.N,unconnected-(U1-Pad12)*%
X52933600Y-63581750D03*
%TO.P,U1,24,RAW*%
%TO.N,unconnected-(U1-Pad24)*%
X68173600Y-35641750D03*
%TD*%
D13*
%TO.P,SW6,1*%
%TO.N,2x3*%
X81894771Y-55534984D03*
D14*
X81915000Y-55245000D03*
D15*
%TO.P,SW6,2*%
%TO.N,GND*%
X76219995Y-57054996D03*
D14*
X76875000Y-56325000D03*
D16*
%TO.P,SW6,1*%
%TO.N,2x3*%
X84375000Y-56525000D03*
%TO.P,SW6,2*%
%TO.N,GND*%
X79375000Y-54425000D03*
%TD*%
D13*
%TO.P,SW3,1*%
%TO.N,1x3*%
X81894771Y-36484984D03*
D14*
X81915000Y-36195000D03*
D15*
%TO.P,SW3,2*%
%TO.N,GND*%
X76219995Y-38004996D03*
D14*
X76875000Y-37275000D03*
D16*
%TO.P,SW3,1*%
%TO.N,1x3*%
X84375000Y-37475000D03*
%TO.P,SW3,2*%
%TO.N,GND*%
X79375000Y-35375000D03*
%TD*%
D13*
%TO.P,SW5,1*%
%TO.N,2x2*%
X62844771Y-55534984D03*
D14*
X62865000Y-55245000D03*
D15*
%TO.P,SW5,2*%
%TO.N,GND*%
X57169995Y-57054996D03*
D14*
X57825000Y-56325000D03*
D16*
%TO.P,SW5,1*%
%TO.N,2x2*%
X65325000Y-56525000D03*
%TO.P,SW5,2*%
%TO.N,GND*%
X60325000Y-54425000D03*
%TD*%
%TO.P,SW2,2*%
%TO.N,GND*%
X60325000Y-35375000D03*
%TO.P,SW2,1*%
%TO.N,1x2*%
X65325000Y-37475000D03*
D14*
%TO.P,SW2,2*%
%TO.N,GND*%
X57825000Y-37275000D03*
D15*
X57169995Y-38004996D03*
D14*
%TO.P,SW2,1*%
%TO.N,1x2*%
X62865000Y-36195000D03*
D13*
X62844771Y-36484984D03*
%TD*%
%TO.P,SW4,1*%
%TO.N,2x1*%
X43794771Y-55534984D03*
D14*
X43815000Y-55245000D03*
D15*
%TO.P,SW4,2*%
%TO.N,GND*%
X38119995Y-57054996D03*
D14*
X38775000Y-56325000D03*
D16*
%TO.P,SW4,1*%
%TO.N,2x1*%
X46275000Y-56525000D03*
%TO.P,SW4,2*%
%TO.N,GND*%
X41275000Y-54425000D03*
%TD*%
D13*
%TO.P,SW1,1*%
%TO.N,1x1*%
X43794771Y-36484984D03*
D14*
X43815000Y-36195000D03*
D15*
%TO.P,SW1,2*%
%TO.N,GND*%
X38119995Y-38004996D03*
D14*
X38775000Y-37275000D03*
D16*
%TO.P,SW1,1*%
%TO.N,1x1*%
X46275000Y-37475000D03*
%TO.P,SW1,2*%
%TO.N,GND*%
X41275000Y-35375000D03*
%TD*%
D17*
%TO.N,1x2*%
X63525000Y-37475000D02*
X65325000Y-37475000D01*
X62825000Y-36775000D02*
X63525000Y-37475000D01*
X61821950Y-46678050D02*
X63000000Y-45500000D01*
X63000000Y-36950000D02*
X62825000Y-36775000D01*
X53352700Y-46678050D02*
X61821950Y-46678050D01*
X52476400Y-45801750D02*
X53352700Y-46678050D01*
X63000000Y-45500000D02*
X63000000Y-36950000D01*
%TO.N,1x1*%
X44475000Y-37475000D02*
X43775000Y-36775000D01*
X46275000Y-37475000D02*
X44475000Y-37475000D01*
X49000000Y-40200000D02*
X46275000Y-37475000D01*
X49000000Y-46250000D02*
X49000000Y-40200000D01*
X52933600Y-48341750D02*
X51091750Y-48341750D01*
X51091750Y-48341750D02*
X49000000Y-46250000D01*
%TO.N,2x1*%
X44475000Y-56525000D02*
X43775000Y-55825000D01*
X46275000Y-56525000D02*
X44475000Y-56525000D01*
X46833150Y-56525000D02*
X46275000Y-56525000D01*
X52476400Y-50881750D02*
X46833150Y-56525000D01*
%TO.N,2x2*%
X63525000Y-56525000D02*
X65325000Y-56525000D01*
X62825000Y-55825000D02*
X63525000Y-56525000D01*
X62825000Y-53675000D02*
X62825000Y-55825000D01*
X65618250Y-50881750D02*
X62825000Y-53675000D01*
X68173600Y-50881750D02*
X65618250Y-50881750D01*
%TO.N,2x3*%
X82575000Y-56525000D02*
X84375000Y-56525000D01*
X81875000Y-55825000D02*
X82575000Y-56525000D01*
X67716400Y-48341750D02*
X77591750Y-48341750D01*
X77591750Y-48341750D02*
X81915000Y-52665000D01*
X81915000Y-52665000D02*
X81915000Y-55245000D01*
%TO.N,1x3*%
X83095000Y-36195000D02*
X81915000Y-36195000D01*
X84375000Y-37475000D02*
X83095000Y-36195000D01*
X82500000Y-37400000D02*
X81875000Y-36775000D01*
X82500000Y-42250000D02*
X82500000Y-37400000D01*
X69049900Y-46678050D02*
X78071950Y-46678050D01*
X78071950Y-46678050D02*
X82500000Y-42250000D01*
X68173600Y-45801750D02*
X69049900Y-46678050D01*
%TO.N,Net-(JP1-Pad1)*%
X72000000Y-36895350D02*
X72000000Y-36250000D01*
X68173600Y-40721750D02*
X72000000Y-36895350D01*
X68221750Y-40721750D02*
X68250000Y-40750000D01*
X68173600Y-40721750D02*
X68221750Y-40721750D01*
%TD*%
M02*
