%TF.GenerationSoftware,KiCad,Pcbnew,(6.0.1)*%
%TF.CreationDate,2022-02-20T17:51:40+01:00*%
%TF.ProjectId,3x2-macropad,3378322d-6d61-4637-926f-7061642e6b69,rev?*%
%TF.SameCoordinates,Original*%
%TF.FileFunction,Soldermask,Top*%
%TF.FilePolarity,Negative*%
%FSLAX46Y46*%
G04 Gerber Fmt 4.6, Leading zero omitted, Abs format (unit mm)*
G04 Created by KiCad (PCBNEW (6.0.1)) date 2022-02-20 17:51:40*
%MOMM*%
%LPD*%
G01*
G04 APERTURE LIST*
G04 Aperture macros list*
%AMHorizOval*
0 Thick line with rounded ends*
0 $1 width*
0 $2 $3 position (X,Y) of the first rounded end (center of the circle)*
0 $4 $5 position (X,Y) of the second rounded end (center of the circle)*
0 Add line between two ends*
20,1,$1,$2,$3,$4,$5,0*
0 Add two circle primitives to create the rounded ends*
1,1,$1,$2,$3*
1,1,$1,$4,$5*%
G04 Aperture macros list end*
%ADD10C,1.400000*%
%ADD11R,1.752600X1.752600*%
%ADD12C,1.752600*%
%ADD13HorizOval,2.250000X0.019771X0.290016X-0.019771X-0.290016X0*%
%ADD14C,2.250000*%
%ADD15HorizOval,2.250000X0.654995X0.730004X-0.654995X-0.730004X0*%
%ADD16C,3.987800*%
%ADD17C,1.750000*%
%ADD18C,2.000000*%
%ADD19C,1.700000*%
%ADD20C,1.200000*%
G04 APERTURE END LIST*
D10*
%TO.C,JP1*%
X72000000Y-36250000D03*
X72000000Y-33710000D03*
%TD*%
D11*
%TO.C,U1*%
X52476400Y-35641750D03*
D12*
X52933600Y-38181750D03*
X52476400Y-40721750D03*
X52933600Y-43261750D03*
X52476400Y-45801750D03*
X52933600Y-48341750D03*
X52476400Y-50881750D03*
X52933600Y-53421750D03*
X52476400Y-55961750D03*
X52933600Y-58501750D03*
X52476400Y-61041750D03*
X67716400Y-63581750D03*
X68173600Y-61041750D03*
X67716400Y-58501750D03*
X68173600Y-55961750D03*
X67716400Y-53421750D03*
X68173600Y-50881750D03*
X67716400Y-48341750D03*
X68173600Y-45801750D03*
X67716400Y-43261750D03*
X68173600Y-40721750D03*
X67716400Y-38181750D03*
X52933600Y-63581750D03*
X68173600Y-35641750D03*
%TD*%
D13*
%TO.C,SW6*%
X81894771Y-55534984D03*
D14*
X81915000Y-55245000D03*
D15*
X76219995Y-57054996D03*
D16*
X79375000Y-60325000D03*
D14*
X76875000Y-56325000D03*
D17*
X74295000Y-60325000D03*
X84455000Y-60325000D03*
D18*
X84375000Y-56525000D03*
X79375000Y-54425000D03*
D19*
X73875000Y-60325000D03*
X84875000Y-60325000D03*
D20*
X74155000Y-64525000D03*
%TD*%
D13*
%TO.C,SW3*%
X81894771Y-36484984D03*
D14*
X81915000Y-36195000D03*
D15*
X76219995Y-38004996D03*
D16*
X79375000Y-41275000D03*
D14*
X76875000Y-37275000D03*
D17*
X74295000Y-41275000D03*
X84455000Y-41275000D03*
D18*
X84375000Y-37475000D03*
X79375000Y-35375000D03*
D19*
X73875000Y-41275000D03*
X84875000Y-41275000D03*
D20*
X74155000Y-45475000D03*
%TD*%
D13*
%TO.C,SW5*%
X62844771Y-55534984D03*
D14*
X62865000Y-55245000D03*
D15*
X57169995Y-57054996D03*
D16*
X60325000Y-60325000D03*
D14*
X57825000Y-56325000D03*
D17*
X55245000Y-60325000D03*
X65405000Y-60325000D03*
D18*
X65325000Y-56525000D03*
X60325000Y-54425000D03*
D19*
X54825000Y-60325000D03*
X65825000Y-60325000D03*
D20*
X55105000Y-64525000D03*
%TD*%
%TO.C,SW2*%
X55105000Y-45475000D03*
D19*
X65825000Y-41275000D03*
X54825000Y-41275000D03*
D18*
X60325000Y-35375000D03*
X65325000Y-37475000D03*
D17*
X65405000Y-41275000D03*
X55245000Y-41275000D03*
D14*
X57825000Y-37275000D03*
D16*
X60325000Y-41275000D03*
D15*
X57169995Y-38004996D03*
D14*
X62865000Y-36195000D03*
D13*
X62844771Y-36484984D03*
%TD*%
%TO.C,SW4*%
X43794771Y-55534984D03*
D14*
X43815000Y-55245000D03*
D15*
X38119995Y-57054996D03*
D16*
X41275000Y-60325000D03*
D14*
X38775000Y-56325000D03*
D17*
X36195000Y-60325000D03*
X46355000Y-60325000D03*
D18*
X46275000Y-56525000D03*
X41275000Y-54425000D03*
D19*
X35775000Y-60325000D03*
X46775000Y-60325000D03*
D20*
X36055000Y-64525000D03*
%TD*%
D13*
%TO.C,SW1*%
X43794771Y-36484984D03*
D14*
X43815000Y-36195000D03*
D15*
X38119995Y-38004996D03*
D16*
X41275000Y-41275000D03*
D14*
X38775000Y-37275000D03*
D17*
X36195000Y-41275000D03*
X46355000Y-41275000D03*
D18*
X46275000Y-37475000D03*
X41275000Y-35375000D03*
D19*
X35775000Y-41275000D03*
X46775000Y-41275000D03*
D20*
X36055000Y-45475000D03*
%TD*%
M02*
