M48
; DRILL file {KiCad (6.0.1)} date Sun Feb 20 17:51:19 2022
; FORMAT={-:-/ absolute / inch / decimal}
; #@! TF.CreationDate,2022-02-20T17:51:19+01:00
; #@! TF.GenerationSoftware,Kicad,Pcbnew,(6.0.1)
; #@! TF.FileFunction,NonPlated,1,2,NPTH
FMAT,2
INCH
; #@! TA.AperFunction,NonPlated,NPTH,ComponentDrill
T1C0.0472
; #@! TA.AperFunction,NonPlated,NPTH,ComponentDrill
T2C0.0669
; #@! TA.AperFunction,NonPlated,NPTH,ComponentDrill
T3C0.0689
; #@! TA.AperFunction,NonPlated,NPTH,ComponentDrill
T4C0.1570
%
G90
G05
T1
X1.4195Y-1.7904
X1.4195Y-2.5404
X2.1695Y-1.7904
X2.1695Y-2.5404
X2.9195Y-1.7904
X2.9195Y-2.5404
T2
X1.4085Y-1.625
X1.4085Y-2.375
X1.8415Y-1.625
X1.8415Y-2.375
X2.1585Y-1.625
X2.1585Y-2.375
X2.5915Y-1.625
X2.5915Y-2.375
X2.9085Y-1.625
X2.9085Y-2.375
X3.3415Y-1.625
X3.3415Y-2.375
T3
X1.425Y-1.625
X1.425Y-2.375
X1.825Y-1.625
X1.825Y-2.375
X2.175Y-1.625
X2.175Y-2.375
X2.575Y-1.625
X2.575Y-2.375
X2.925Y-1.625
X2.925Y-2.375
X3.325Y-1.625
X3.325Y-2.375
T4
X1.625Y-1.625
X1.625Y-2.375
X2.375Y-1.625
X2.375Y-2.375
X3.125Y-1.625
X3.125Y-2.375
T0
M30
